<svg width="300" height="23" viewBox="0 0 300 23" fill="none" xmlns="http://www.w3.org/2000/svg">
<path d="M294.073 17.36H299.653V22.01H294.073V17.36Z" fill="white"/>
<path d="M276.869 22.0101H270.824L279.039 0.310059H285.239L293.454 22.0101H287.409L286.014 18.1351H278.264L276.869 22.0101ZM279.659 14.1051H284.619L282.139 6.82006L279.659 14.1051Z" fill="white"/>
<path d="M267.885 0C268.402 0 269.331 0.103333 270.675 0.31V4.495H269.435C269.125 4.495 268.846 4.59833 268.598 4.805C268.35 4.991 268.164 5.19767 268.04 5.425L265.095 11.005L271.14 22.01H265.25L260.445 13.175H257.655V22.01H252.075V0.31H257.655V8.835H260.445L263.545 2.945C263.999 2.077 264.557 1.37433 265.219 0.837C265.901 0.279 266.79 0 267.885 0Z" fill="white"/>
<path d="M242.772 14.8801C240.292 15.0867 237.947 15.1901 235.735 15.1901C233.545 15.1901 231.974 14.7147 231.023 13.7641C230.073 12.8134 229.597 11.3254 229.597 9.30006V0.310059H235.177V9.30006C235.177 9.77539 235.312 10.1577 235.58 10.4471C235.87 10.7157 236.252 10.8501 236.727 10.8501C238.422 10.8501 240.437 10.7467 242.772 10.5401V0.310059H248.352V22.0101H242.772V14.8801Z" fill="white"/>
<path d="M223.073 6.2C223.073 4.96 222.453 4.34 221.213 4.34H215.943C214.703 4.34 214.083 4.96 214.083 6.2V16.12C214.083 17.36 214.703 17.98 215.943 17.98H221.213C222.453 17.98 223.073 17.36 223.073 16.12V6.2ZM228.653 16.12C228.653 18.29 228.157 19.871 227.165 20.863C226.194 21.8343 224.623 22.32 222.453 22.32H214.703C212.533 22.32 210.952 21.8343 209.96 20.863C208.989 19.871 208.503 18.29 208.503 16.12V6.2C208.503 4.03 208.989 2.45933 209.96 1.488C210.952 0.496 212.533 0 214.703 0H222.453C224.623 0 226.194 0.496 227.165 1.488C228.157 2.45933 228.653 4.03 228.653 6.2V16.12Z" fill="white"/>
<path d="M201.989 22.0101H196.409V4.65006H189.899V0.310059H208.499V4.65006H201.989V22.0101Z" fill="white"/>
<path d="M178.421 22.0101H172.841V8.68006L165.401 22.0101H159.511V0.310059H165.091V13.6401L172.531 0.310059H178.421V22.0101Z" fill="white"/>
<path d="M133.787 13.175V9.14502H156.727V13.175H133.787Z" fill="white"/>
<path d="M109.6 7.75006H116.73C118.9 7.75006 120.47 8.24606 121.442 9.23806C122.434 10.2094 122.93 11.7801 122.93 13.9501V15.8101C122.93 17.9801 122.434 19.5611 121.442 20.5531C120.47 21.5244 118.9 22.0101 116.73 22.0101H104.02V0.310059H109.6V7.75006ZM130.99 22.0101H125.41V0.310059H130.99V22.0101ZM117.35 13.9501C117.35 12.7101 116.73 12.0901 115.49 12.0901H109.6V17.6701H115.49C116.73 17.6701 117.35 17.0501 117.35 15.8101V13.9501Z" fill="white"/>
<path d="M101.536 21.7001C96.9272 22.1134 93.1039 22.3201 90.0659 22.3201C88.0406 22.3201 86.5526 21.8447 85.6019 20.8941C84.6512 19.9434 84.1759 18.4554 84.1759 16.4301V6.51006C84.1759 4.34006 84.6616 2.76939 85.6329 1.79806C86.6249 0.806059 88.2059 0.310059 90.3759 0.310059H101.536V4.65006H91.6159C90.3759 4.65006 89.7559 5.27006 89.7559 6.51006V16.4301C89.7559 16.9054 89.8902 17.2877 90.1589 17.5771C90.4482 17.8457 90.8099 17.9801 91.2439 17.9801C91.6779 17.9801 92.1532 17.9801 92.6699 17.9801C93.1866 17.9594 93.7239 17.9387 94.2819 17.9181C94.8399 17.8974 95.3979 17.8767 95.9559 17.8561C96.5346 17.8354 97.2682 17.7941 98.1569 17.7321C99.0662 17.6701 100.193 17.5977 101.536 17.5151V21.7001Z" fill="white"/>
<path d="M82.3123 21.7001C77.7036 22.1134 73.8803 22.3201 70.8423 22.3201C68.8169 22.3201 67.3289 21.8447 66.3783 20.8941C65.4276 19.9434 64.9523 18.4554 64.9523 16.4301V6.51006C64.9523 4.34006 65.4379 2.76939 66.4093 1.79806C67.4013 0.806059 68.9823 0.310059 71.1523 0.310059H82.3123V4.65006H72.3923C71.1523 4.65006 70.5323 5.27006 70.5323 6.51006V16.4301C70.5323 16.9054 70.6666 17.2877 70.9353 17.5771C71.2246 17.8457 71.5863 17.9801 72.0203 17.9801C72.4543 17.9801 72.9296 17.9801 73.4463 17.9801C73.9629 17.9594 74.5003 17.9387 75.0583 17.9181C75.6163 17.8974 76.1743 17.8767 76.7323 17.8561C77.3109 17.8354 78.0446 17.7941 78.9333 17.7321C79.8426 17.6701 80.9689 17.5977 82.3123 17.5151V21.7001Z" fill="white"/>
<path d="M56.8777 6.2C56.8777 4.96 56.2577 4.34 55.0177 4.34H49.7477C48.5077 4.34 47.8877 4.96 47.8877 6.2V16.12C47.8877 17.36 48.5077 17.98 49.7477 17.98H55.0177C56.2577 17.98 56.8777 17.36 56.8777 16.12V6.2ZM62.4577 16.12C62.4577 18.29 61.9617 19.871 60.9697 20.863C59.9984 21.8343 58.4277 22.32 56.2577 22.32H48.5077C46.3377 22.32 44.7567 21.8343 43.7647 20.863C42.7934 19.871 42.3077 18.29 42.3077 16.12V6.2C42.3077 4.03 42.7934 2.45933 43.7647 1.488C44.7567 0.496 46.3377 0 48.5077 0H56.2577C58.4277 0 59.9984 0.496 60.9697 1.488C61.9617 2.45933 62.4577 4.03 62.4577 6.2V16.12Z" fill="white"/>
<path d="M20.9189 0.310059H33.9389C36.1089 0.310059 37.6796 0.806059 38.6509 1.79806C39.6429 2.76939 40.1389 4.34006 40.1389 6.51006V9.61006C40.1389 11.7801 39.6429 13.3611 38.6509 14.3531C37.6796 15.3244 36.1089 15.8101 33.9389 15.8101H26.4989V22.0101H20.9189V0.310059ZM34.5589 6.51006C34.5589 5.27006 33.9389 4.65006 32.6989 4.65006H26.4989V11.4701H32.6989C33.9389 11.4701 34.5589 10.8501 34.5589 9.61006V6.51006Z" fill="white"/>
<path d="M15.81 0C16.3267 0 17.2567 0.103333 18.6 0.31V4.495H17.36C17.05 4.495 16.771 4.59833 16.523 4.805C16.275 4.991 16.089 5.19767 15.965 5.425L13.02 11.005L19.065 22.01H13.175L8.37 13.175H5.58V22.01H0V0.31H5.58V8.835H8.37L11.47 2.945C11.9247 2.077 12.4827 1.37433 13.144 0.837C13.826 0.279 14.7147 0 15.81 0Z" fill="white"/>
</svg>
